<svg width="52" height="48" viewBox="0 0 52 48" fill="none" xmlns="http://www.w3.org/2000/svg">
<path d="M26.001 0.666138C27.2387 0.666138 28.4257 1.1578 29.3008 2.03297C30.176 2.90814 30.6677 4.09513 30.6677 5.3328C30.6677 7.05947 29.7344 8.57614 28.3344 9.36947V12.3328H30.6677C34.9996 12.3328 39.154 14.0536 42.2171 17.1167C45.2802 20.1798 47.001 24.3343 47.001 28.6661H49.3344C49.9532 28.6661 50.5467 28.912 50.9843 29.3496C51.4219 29.7871 51.6677 30.3806 51.6677 30.9995V37.9995C51.6677 38.6183 51.4219 39.2118 50.9843 39.6494C50.5467 40.087 49.9532 40.3328 49.3344 40.3328H47.001V42.6661C47.001 43.9038 46.5093 45.0908 45.6342 45.966C44.759 46.8411 43.572 47.3328 42.3344 47.3328H9.66768C8.43001 47.3328 7.24302 46.8411 6.36785 45.966C5.49268 45.0908 5.00102 43.9038 5.00102 42.6661V40.3328H2.66768C2.04885 40.3328 1.45535 40.087 1.01777 39.6494C0.580183 39.2118 0.334351 38.6183 0.334351 37.9995V30.9995C0.334351 30.3806 0.580183 29.7871 1.01777 29.3496C1.45535 28.912 2.04885 28.6661 2.66768 28.6661H5.00102C5.00102 24.3343 6.72185 20.1798 9.78494 17.1167C12.848 14.0536 17.0025 12.3328 21.3344 12.3328H23.6677V9.36947C22.2677 8.57614 21.3344 7.05947 21.3344 5.3328C21.3344 4.09513 21.826 2.90814 22.7012 2.03297C23.5764 1.1578 24.7633 0.666138 26.001 0.666138ZM15.501 26.3328C13.9539 26.3328 12.4702 26.9474 11.3762 28.0413C10.2823 29.1353 9.66768 30.619 9.66768 32.1661C9.66768 33.7132 10.2823 35.197 11.3762 36.2909C12.4702 37.3849 13.9539 37.9995 15.501 37.9995C17.0481 37.9995 18.5318 37.3849 19.6258 36.2909C20.7198 35.197 21.3344 33.7132 21.3344 32.1661C21.3344 30.619 20.7198 29.1353 19.6258 28.0413C18.5318 26.9474 17.0481 26.3328 15.501 26.3328ZM36.501 26.3328C34.9539 26.3328 33.4702 26.9474 32.3762 28.0413C31.2823 29.1353 30.6677 30.619 30.6677 32.1661C30.6677 33.7132 31.2823 35.197 32.3762 36.2909C33.4702 37.3849 34.9539 37.9995 36.501 37.9995C38.0481 37.9995 39.5318 37.3849 40.6258 36.2909C41.7198 35.197 42.3344 33.7132 42.3344 32.1661C42.3344 30.619 41.7198 29.1353 40.6258 28.0413C39.5318 26.9474 38.0481 26.3328 36.501 26.3328Z" fill="white"/>
</svg>
