<svg width="24" height="23" viewBox="0 0 24 23" fill="none" xmlns="http://www.w3.org/2000/svg">
<path d="M4.11953 20.1044L5.94829 18.6414L5.96173 18.6311C6.34299 18.3261 6.53537 18.1722 6.75002 18.0625C6.94259 17.9641 7.14794 17.8925 7.35977 17.849C7.59853 17.8 7.84724 17.8 8.34648 17.8H18.7637C20.1052 17.8 20.7767 17.8 21.2896 17.5387C21.7412 17.3086 22.1086 16.941 22.3387 16.4895C22.6 15.9766 22.6 15.3058 22.6 13.9643V4.83629C22.6 3.49479 22.6 2.82304 22.3387 2.31016C22.1086 1.85857 21.7405 1.49168 21.2889 1.26158C20.7755 1 20.1044 1 18.7602 1H4.84023C3.49611 1 2.82354 1 2.31016 1.26158C1.85857 1.49168 1.49168 1.85857 1.26158 2.31016C1 2.82354 1 3.49611 1 4.84023V18.6054C1 19.8843 1 20.5236 1.26215 20.852C1.49013 21.1376 1.83572 21.3037 2.20117 21.3034C2.62138 21.3029 3.12093 20.9033 4.11953 20.1044Z" stroke="#353841" stroke-width="2" stroke-linecap="round" stroke-linejoin="round"/>
</svg>
