<svg width="26" height="26" viewBox="0 0 26 26" fill="none" xmlns="http://www.w3.org/2000/svg">
<path d="M8.80025 3.6H5.16025C3.70412 3.6 2.97551 3.6 2.41934 3.88338C1.93011 4.13265 1.53265 4.53011 1.28338 5.01934C1 5.57551 1 6.30412 1 7.76025V20.2403C1 21.6964 1 22.4241 1.28338 22.9802C1.53265 23.4695 1.93011 23.8676 2.41934 24.1169C2.97496 24.4 3.70269 24.4 5.15598 24.4H17.644C19.0973 24.4 19.824 24.4 20.3796 24.1169C20.8688 23.8676 21.2676 23.4691 21.5169 22.9799C21.8 22.4242 21.8 21.6973 21.8 20.244V16.6M16.6 4.9L8.8 12.7V16.6H12.7L20.5 8.8M16.6 4.9L20.5 1L24.4 4.9L20.5 8.8M16.6 4.9L20.5 8.8" stroke="#353841" stroke-width="2" stroke-linecap="round" stroke-linejoin="round"/>
</svg>
